<svg id="Layer_2" data-name="Layer 2" xmlns="http://www.w3.org/2000/svg" viewBox="0 0 700 700"><defs><style>.cls-1{fill:#231f20;}.cls-2{fill:#fff;}</style></defs><rect class="cls-1" width="700" height="700" rx="73"/><path class="cls-2" d="M365.19,37.16a48.32,48.32,0,0,1-7.9.94c-4.14.38-8.37.85-9.41,1a40.81,40.81,0,0,1-5.17.85C331.24,41.2,314,45.25,298,50.23c-8.56,2.73-51.92,18.91-99.7,37.25-5.17,2-14.67,5.64-21.16,8-13.08,4.89-13,4.89-28.5,12.22-29,13.64-59.54,35.65-78.73,56.44l-4.23,4.61,6.39-4.33a120.6,120.6,0,0,1,28.41-13.73c8.18-2.73,10.44-3.29,17.4-4.42,1.79-.28,4.89-.85,6.87-1.32,3.48-.75,40-.47,44.86.38,1.32.19,4.61.66,7.43,1s5.74.75,6.59.94c1.78.38,9.59,2.35,10.91,2.73.56.19,2.25.56,3.76,1,5.45,1.42,16.65,7.44,20,10.82,4.61,4.61,5.55,5,18.06,8,19.47,4.51,30.38,7.15,43.74,10.34,7.24,1.7,23.33,5.55,35.74,8.47C338,194,382.78,204.77,394,207.59c3.11.76,6.49,1.6,7.53,1.79s9.87,2.35,19.56,4.8l17.68,4.42,5.27-1.69c5.55-1.79,16.46-2.26,23.8-1,18.15,2.92,47,14.58,65,26.15,9.88,6.4,10.82,7,19.47,15.33,12,11.38,21.36,25.4,29.73,44.68,1.78,4.33,6,20.5,7,26.71,1.31,9.13.56,87-1.23,125.2-1.31,28.12-1.88,38.94-2.82,51.73-1.6,21.44-1.41,19.09-2.82,34.05-.28,3.29-.28,5.92,0,5.92,1.32,0,19.57-19.56,28-30.1a282,282,0,0,0,48.72-88.88c2.83-8.37,7.9-27.28,8.84-32.26,4.9-28.22,5.55-35.75,5.55-58,0-22.48-1.31-35.18-5.55-56.06-3.95-19.09-8.27-32.73-19.56-61.61C621.5,150.59,573.34,98,508.72,66.41c-26.61-13.07-58.78-23.23-82.86-26.34-4.23-.47-9.69-1.22-14.49-2C407.42,37.54,365.66,36.69,365.19,37.16Z"/><path class="cls-2" d="M140.77,219.54c-1.79.75-2.64,3.29-5.93,17.49-4.33,18.44-5.36,21.73-7.15,23.24-.94.75-6-.1-19.85-3.48-10.25-2.54-19.56-4.61-20.69-4.61-6.39,0-14.58,18.72-13.83,31.41a40.25,40.25,0,0,0,1.32,7.62c.94,2.92,1.51,3.2,9.22,5.18,4.51,1.12,9,2.25,10.06,2.44,7.81,1.51,20.7,5.36,21.36,6.3a3.39,3.39,0,0,1,.28,2.54c-1.79,6.21-8.19,33.86-8.19,35.56-.09,7.43,17.5,15.42,32,14.67,10.63-.66,10.44-.28,15.71-22,3.2-13.36,5.08-19.19,6.12-19.75S169,316.8,182,320c10.54,2.53,20,4.42,21.07,4.13,3.39-.94,10.73-12.51,12.32-19.28,1.42-6.39-.09-19.19-2.54-22.2-.47-.65-2.44-1.41-4.42-1.88-4.51-.84-4-.75-13.35-3.2-4.42-1.12-8.84-2.25-9.88-2.44-7.43-1.41-11-2.63-11.85-4.23-.47-1-.75-2.17-.47-2.54a10.82,10.82,0,0,0,.85-3.11c.28-1.22,1.22-5,2.07-8.37l1.88-7.52c.18-.76,1.22-5.18,2.35-9.79l2.07-8.46-2.64-2.26a53,53,0,0,0-16.83-8.18C156,218.79,143.78,218.13,140.77,219.54Z"/><path class="cls-2" d="M457,286.89c-12.6,3.29-21.35,14.67-20.78,27.27a27,27,0,0,0,8.37,19.29c13.45,13.26,36.68,9.31,45.05-7.72,3-6.11,3.1-18.62.09-24.17a31.79,31.79,0,0,0-13.35-12.79C471.67,286.51,461.88,285.57,457,286.89Z"/><path class="cls-2" d="M389.74,324a28.59,28.59,0,0,0-16.08,13.82c-3.11,5.83-3.2,17.22-.19,23.71,2.54,5.64,7.9,10.72,14.39,13.73,14.2,6.58,32.07-.75,37.62-15.43C433.67,337.68,412.6,316.42,389.74,324Z"/><path class="cls-2" d="M493.49,349.81a28.39,28.39,0,0,0-15.8,13.92c-7.15,14.21-.19,32.17,14.67,37.81,5.74,2.17,18.72,2.45,20.79.38a4.21,4.21,0,0,1,2.44-1.13c2.07,0,8.56-5.55,10.91-9.31,9.22-14.67,4-33.2-11.38-40.54A31.15,31.15,0,0,0,493.49,349.81Z"/><path class="cls-2" d="M428,386.4c-10.34,3.48-17.87,14.2-17.87,25.49-.09,15.71,12,27.75,28,27.75a27.4,27.4,0,0,0,23.7-42.33C455.3,387,440.44,382.17,428,386.4Z"/><path class="cls-2" d="M106.43,431.83c-6.3,1.13-15.61,5.83-20.6,10.54A105.65,105.65,0,0,0,76,453.94c-3,4.13-5.74,7.71-6,8s-3,3.67-6.12,7.53A342.5,342.5,0,0,1,35.89,501l-9.12,9.4,3.85,7.06c32.73,59.72,89.45,107,156,129.89,10.82,3.76,32.64,9.6,40.45,10.72,2.35.38,5.08.85,6.11,1,1.79.37,6,1,10.82,1.79,12.32,1.78,43.17,2.44,59.16,1.12a80.34,80.34,0,0,0,9.41-1,49.49,49.49,0,0,1,6.21-.94c4.7-.47,11.28-1.79,30.56-5.83,5.46-1.13,27.47-8.75,48-16.56,12.14-4.61,28.88-10.91,37.16-14.11,20.31-7.71,20.22-7.61,20.22-9.12a77,77,0,0,0-2.73-9.41,428.35,428.35,0,0,1-12.69-50.41c-.29-1.6-1.32-7.71-2.36-13.64-2.25-13.17-3.1-15.9-6.2-21.26a45.07,45.07,0,0,0-25.21-20c-4.52-1.41-27-7-33.11-8.18-.47-.1-3.48-.85-6.59-1.6s-6.67-1.7-8-2c-3.48-.66-37.53-8.84-41.39-10s-86.34-20.69-100.64-24c-.75-.19-11.95-2.92-24.93-6C169.17,442.65,141.33,436,137.47,435a36.17,36.17,0,0,1-3.76-.94c-1.22-.28-3.2-.66-4.51-.94a22.4,22.4,0,0,1-3.77-.94C122.89,431.36,111,431.08,106.43,431.83Z"/></svg>