<?xml version="1.0" standalone="no"?>
<!DOCTYPE svg PUBLIC "-//W3C//DTD SVG 20010904//EN"
 "http://www.w3.org/TR/2001/REC-SVG-20010904/DTD/svg10.dtd">
<svg version="1.0" xmlns="http://www.w3.org/2000/svg"
 width="700.000000pt" height="700.000000pt" viewBox="0 0 700.000000 700.000000"
 preserveAspectRatio="xMidYMid meet">
<g transform="translate(0.000000,700.000000) scale(0.100000,-0.100000)"
fill="#000000" stroke="none">
<path d="M3659 6826 c-2 -2 -40 -7 -84 -10 -44 -4 -89 -9 -100 -11 -11 -3 -36
-7 -55 -9 -122 -13 -305 -56 -475 -109 -91 -29 -552 -201 -1060 -396 -55 -21
-156 -60 -225 -85 -139 -52 -138 -52 -303 -130 -308 -145 -633 -379 -837 -600
l-45 -49 68 46 c90 60 192 109 302 146 87 29 111 35 185 47 19 3 52 9 73 14
37 8 425 5 477 -4 14 -2 49 -7 79 -11 30 -4 61 -8 70 -10 19 -4 102 -25 116
-29 6 -2 24 -6 40 -11 58 -15 177 -79 213 -115 49 -49 59 -53 192 -85 207 -48
323 -76 465 -110 77 -18 248 -59 380 -90 235 -56 711 -171 830 -201 33 -8 69
-17 80 -19 11 -2 105 -25 208 -51 l188 -47 56 18 c59 19 175 24 253 11 193
-31 500 -155 691 -278 105 -68 115 -75 207 -163 128 -121 227 -270 316 -475
19 -46 64 -218 74 -284 14 -97 6 -925 -13 -1331 -14 -299 -20 -414 -30 -550
-17 -228 -15 -203 -30 -362 -3 -35 -3 -63 0 -63 14 0 208 208 298 320 232 288
407 607 518 945 30 89 84 290 94 343 52 300 59 380 59 617 0 239 -14 374 -59
596 -42 203 -88 348 -208 655 -283 724 -795 1283 -1482 1619 -283 139 -625
247 -881 280 -45 5 -103 13 -154 21 -42 6 -486 15 -491 10z"/>
<path d="M1273 4887 c-19 -8 -28 -35 -63 -186 -46 -196 -57 -231 -76 -247 -10
-8 -64 1 -211 37 -109 27 -208 49 -220 49 -68 0 -155 -199 -147 -334 2 -26 8
-63 14 -81 10 -31 16 -34 98 -55 48 -12 96 -24 107 -26 83 -16 220 -57 227
-67 4 -6 6 -19 3 -27 -19 -66 -87 -360 -87 -378 -1 -79 186 -164 340 -156 113
7 111 3 167 234 34 142 54 204 65 210 12 6 83 -7 221 -41 112 -27 213 -47 224
-44 36 10 114 133 131 205 15 68 -1 204 -27 236 -5 7 -26 15 -47 20 -48 9 -43
8 -142 34 -47 12 -94 24 -105 26 -79 15 -117 28 -126 45 -5 11 -8 23 -5 27 3
5 7 19 9 33 3 13 13 53 22 89 9 36 18 72 20 80 2 8 13 55 25 104 l22 90 -28
24 c-42 33 -110 67 -179 87 -70 20 -200 27 -232 12z"/>
<path d="M4635 4171 c-134 -35 -227 -156 -221 -290 3 -83 31 -147 89 -205 143
-141 390 -99 479 82 32 65 33 198 1 257 -29 55 -86 109 -142 136 -50 24 -154
34 -206 20z"/>
<path d="M3920 3777 c-71 -23 -135 -78 -171 -147 -33 -62 -34 -183 -2 -252 27
-60 84 -114 153 -146 151 -70 341 8 400 164 87 235 -137 461 -380 381z"/>
<path d="M5023 3502 c-73 -26 -133 -79 -168 -148 -76 -151 -2 -342 156 -402
61 -23 199 -26 221 -4 6 6 18 12 26 12 22 0 91 59 116 99 98 156 43 353 -121
431 -66 31 -162 36 -230 12z"/>
<path d="M4327 3113 c-110 -37 -190 -151 -190 -271 -1 -167 127 -295 298 -295
237 -2 378 250 252 450 -70 110 -228 161 -360 116z"/>
<path d="M908 2630 c-67 -12 -166 -62 -219 -112 -25 -24 -73 -79 -105 -123
-32 -44 -61 -82 -64 -85 -3 -3 -32 -39 -65 -80 -104 -131 -164 -199 -297 -335
l-97 -100 41 -75 c348 -635 951 -1138 1658 -1381 115 -40 347 -102 430 -114
25 -4 54 -9 65 -11 19 -4 64 -11 115 -19 131 -19 459 -26 629 -12 52 4 97 9
100 11 3 2 33 6 66 10 50 5 120 19 325 62 58 12 292 93 510 176 129 49 307
116 395 150 216 82 215 81 215 97 0 7 -13 52 -29 100 -46 137 -106 375 -135
536 -3 17 -14 82 -25 145 -24 140 -33 169 -66 226 -59 101 -154 176 -268 213
-48 15 -287 74 -352 87 -5 1 -37 9 -70 17 -33 9 -71 18 -85 21 -37 7 -399 94
-440 106 -40 11 -918 220 -1070 255 -8 2 -127 31 -265 64 -230 56 -526 127
-567 137 -10 2 -28 6 -40 10 -13 3 -34 7 -48 10 -14 2 -32 7 -40 10 -27 9
-154 12 -202 4z"/>
</g>
</svg>
